<svg xmlns="http://www.w3.org/2000/svg" viewBox="0 0 1024 1400" width="1024" height="1400">
  <!-- Generated by scripts/brand-svg.mjs: the splash in Home's ring geometry. -->
  <g transform="translate(512 346)" fill="none" stroke-width="14">
    <path d="M 2.88 -299.99 A 300 300 0 0 1 63.95 -293.11" stroke="#B04D59"/>
    <path d="M 69.56 -291.82 A 300 300 0 0 1 127.56 -271.53" stroke="#B04D59"/>
    <path d="M 132.75 -269.03 A 300 300 0 0 1 184.79 -236.33" stroke="#B04D59"/>
    <path d="M 189.29 -232.74 A 300 300 0 0 1 232.74 -189.29" stroke="#B04D59"/>
    <path d="M 236.33 -184.79 A 300 300 0 0 1 269.03 -132.75" stroke="#B04D59"/>
    <path d="M 271.53 -127.56 A 300 300 0 0 1 291.82 -69.56" stroke="#218373"/>
    <path d="M 293.11 -63.95 A 300 300 0 0 1 299.99 -2.88" stroke="#218373"/>
    <path d="M 299.99 2.88 A 300 300 0 0 1 293.11 63.95" stroke="#218373"/>
    <path d="M 291.82 69.56 A 300 300 0 0 1 271.53 127.56" stroke="#218373"/>
    <path d="M 269.03 132.75 A 300 300 0 0 1 236.33 184.79" stroke="#218373"/>
    <path d="M 232.74 189.29 A 300 300 0 0 1 189.29 232.74" stroke="#218373"/>
    <path d="M 184.79 236.33 A 300 300 0 0 1 132.75 269.03" stroke="#218373"/>
    <path d="M 127.56 271.53 A 300 300 0 0 1 69.56 291.82" stroke="#AA732B"/>
    <path d="M 63.95 293.11 A 300 300 0 0 1 2.88 299.99" stroke="#AA732B"/>
    <path d="M -2.88 299.99 A 300 300 0 0 1 -63.95 293.11" stroke="#AA732B"/>
    <path d="M -69.56 291.82 A 300 300 0 0 1 -127.56 271.53" stroke="#725CA9"/>
    <path d="M -132.75 269.03 A 300 300 0 0 1 -184.79 236.33" stroke="#725CA9"/>
    <path d="M -189.29 232.74 A 300 300 0 0 1 -232.74 189.29" stroke="#725CA9"/>
    <path d="M -236.33 184.79 A 300 300 0 0 1 -269.03 132.75" stroke="#725CA9"/>
    <path d="M -271.53 127.56 A 300 300 0 0 1 -291.82 69.56" stroke="#725CA9"/>
    <path d="M -293.11 63.95 A 300 300 0 0 1 -299.99 2.88" stroke="#725CA9"/>
    <path d="M -299.99 -2.88 A 300 300 0 0 1 -293.11 -63.95" stroke="#725CA9"/>
    <path d="M -291.82 -69.56 A 300 300 0 0 1 -271.53 -127.56" stroke="#725CA9"/>
    <path d="M -269.03 -132.75 A 300 300 0 0 1 -236.33 -184.79" stroke="#725CA9"/>
    <path d="M -232.74 -189.29 A 300 300 0 0 1 -189.29 -232.74" stroke="#725CA9"/>
    <path d="M -184.79 -236.33 A 300 300 0 0 1 -132.75 -269.03" stroke="#725CA9"/>
    <path d="M -127.56 -271.53 A 300 300 0 0 1 -69.56 -291.82" stroke="#725CA9"/>
    <path d="M -63.95 -293.11 A 300 300 0 0 1 -2.88 -299.99" stroke="#725CA9"/>
  </g>
</svg>
